# xmcd
#
# Track frame offsets: 
#        150
#        19684
#        34104
#        43518
#        55682
#        65938
#        87232
#        101981
#        116381
#        132487
#        147356
#        162783
#        180353
#        194996
#        208588
#
# Disc length: 3007 seconds
#
# Revision: 0
# Processed by: cddbd v1.5.2PL0 Copyright (c) Steve Scherf et al.
# Submitted via: ExactAudioCopy v0.99pb5
#
DISCID=db0bbd0f
DTITLE=Yamandú Costa and Dominguinhos - lado B
DYEAR=2010
DGENRE=Folk
TTITLE0=Da Cor do Pecado
TTITLE1=Noites Sergipanas
TTITLE2=Fuga pro Nordeste
TTITLE3=Doce de coco
TTITLE4=Homenagem a Chiquinho
TTITLE5=Naquele tempo
TTITLE6=sanfona de Cordel
TTITLE7=Homenagem a Pixinguinha
TTITLE8=Choro do gago
TTITLE9=Chorando em Passo Fundo
TTITLE10=Carioquinha
TTITLE11=Felicidade
TTITLE12=Pau de Arara
TTITLE13=No Rancho Fundo
TTITLE14=Solamente uma vez
EXTD=
EXTT0=
EXTT1=
EXTT2=
EXTT3=
EXTT4=
EXTT5=
EXTT6=
EXTT7=
EXTT8=
EXTT9=
EXTT10=
EXTT11=
EXTT12=
EXTT13=
EXTT14=
PLAYORDER=
